<svg xmlns="http://www.w3.org/2000/svg" xmlns:xlink="http://www.w3.org/1999/xlink" width="1024" zoomAndPan="magnify" viewBox="0 0 768 767.999994" height="1024" preserveAspectRatio="xMidYMid meet" version="1.0"><defs><g/><clipPath id="b1ce930cd6"><path d="M 178.46875 275.398438 L 589.46875 275.398438 L 589.46875 768 L 178.46875 768 Z M 178.46875 275.398438 " clip-rule="nonzero"/></clipPath><clipPath id="bcc51982b5"><path d="M 359.921875 371.496094 L 408.078125 371.496094 L 408.078125 506.855469 L 359.921875 506.855469 Z M 359.921875 371.496094 " clip-rule="nonzero"/></clipPath></defs><path fill="#ffffff" d="M 180.5625 1320.25 L 180.5625 480.796875 C 180.5625 368.472656 271.648438 277.382812 383.96875 277.382812 C 496.289062 277.382812 587.375 368.472656 587.375 480.796875 L 587.375 1320.25 C 587.375 1432.574219 496.289062 1523.664062 383.96875 1523.664062 C 271.648438 1523.664062 180.5625 1432.574219 180.5625 1320.25 Z M 180.5625 1320.25 " fill-opacity="1" fill-rule="nonzero"/><g clip-path="url(#b1ce930cd6)"><path fill="#000000" d="M 178.578125 1320.25 L 178.578125 480.796875 C 178.578125 367.480469 270.65625 275.398438 383.96875 275.398438 C 497.28125 275.398438 589.359375 367.480469 589.359375 480.796875 L 589.359375 1320.25 C 589.359375 1433.566406 497.28125 1525.648438 383.96875 1525.648438 C 270.65625 1525.648438 178.578125 1433.566406 178.578125 1320.25 Z M 585.390625 480.796875 C 585.390625 369.664062 495.097656 279.367188 383.96875 279.367188 C 272.839844 279.367188 182.546875 369.664062 182.546875 480.796875 L 182.546875 1320.25 C 182.546875 1431.386719 272.839844 1521.679688 383.96875 1521.679688 C 495.097656 1521.679688 585.390625 1431.386719 585.390625 1320.25 Z M 585.390625 480.796875 " fill-opacity="1" fill-rule="nonzero"/></g><g fill="#1c2120" fill-opacity="1"><g transform="translate(291.575931, 553.565496)"><g><path d="M 175.375 -180.078125 C 169.269531 -179.734375 164.734375 -178.816406 161.765625 -177.328125 C 158.796875 -175.847656 156.785156 -173.40625 155.734375 -170 C 154.691406 -166.601562 154.171875 -161.585938 154.171875 -154.953125 L 154.171875 1.3125 L 148.15625 1.3125 L 38.21875 -168.5625 L 38.21875 -30.359375 C 38.21875 -23.554688 38.785156 -18.492188 39.921875 -15.171875 C 41.054688 -11.859375 43.28125 -9.460938 46.59375 -7.984375 C 49.90625 -6.503906 55.050781 -5.585938 62.03125 -5.234375 L 62.03125 0 C 55.75 -0.519531 46.851562 -0.78125 35.34375 -0.78125 C 24.863281 -0.78125 16.75 -0.519531 11 0 L 11 -5.234375 C 17.101562 -5.585938 21.632812 -6.503906 24.59375 -7.984375 C 27.5625 -9.460938 29.566406 -11.90625 30.609375 -15.3125 C 31.660156 -18.71875 32.1875 -23.734375 32.1875 -30.359375 L 32.1875 -157.578125 C 32.1875 -164.203125 31.660156 -169 30.609375 -171.96875 C 29.566406 -174.9375 27.609375 -176.941406 24.734375 -177.984375 C 21.859375 -179.035156 17.28125 -179.734375 11 -180.078125 L 11 -185.3125 C 16.75 -184.789062 24.863281 -184.53125 35.34375 -184.53125 C 43.1875 -184.53125 49.988281 -184.789062 55.75 -185.3125 L 148.15625 -42.921875 L 148.15625 -154.953125 C 148.15625 -161.765625 147.585938 -166.828125 146.453125 -170.140625 C 145.316406 -173.453125 143.085938 -175.847656 139.765625 -177.328125 C 136.453125 -178.816406 131.304688 -179.734375 124.328125 -180.078125 L 124.328125 -185.3125 C 130.609375 -184.789062 139.507812 -184.53125 151.03125 -184.53125 C 161.5 -184.53125 169.613281 -184.789062 175.375 -185.3125 Z M 175.375 -180.078125 "/></g></g></g><g clip-path="url(#bcc51982b5)"><path fill="#ffffff" d="M 359.921875 371.496094 L 408.078125 371.496094 L 408.078125 506.929688 L 359.921875 506.929688 Z M 359.921875 371.496094 " fill-opacity="1" fill-rule="nonzero"/></g><g fill="#1c2120" fill-opacity="1"><g transform="translate(323.70298, 585.62362)"><g><path d="M 105.625 -244.6875 C 97.09375 -244.21875 90.867188 -243.269531 86.953125 -241.84375 C 83.046875 -240.425781 80.378906 -237.703125 78.953125 -233.671875 C 77.535156 -229.640625 76.828125 -223.117188 76.828125 -214.109375 L 76.828125 -37.703125 C 76.828125 -28.691406 77.535156 -22.171875 78.953125 -18.140625 C 80.378906 -14.109375 83.046875 -11.378906 86.953125 -9.953125 C 90.867188 -8.535156 97.09375 -7.585938 105.625 -7.109375 L 105.625 0 C 94.71875 -0.707031 79.664062 -1.0625 60.46875 -1.0625 C 40.070312 -1.0625 24.894531 -0.707031 14.9375 0 L 14.9375 -7.109375 C 23.46875 -7.585938 29.691406 -8.535156 33.609375 -9.953125 C 37.523438 -11.378906 40.191406 -14.109375 41.609375 -18.140625 C 43.035156 -22.171875 43.75 -28.691406 43.75 -37.703125 L 43.75 -214.109375 C 43.75 -223.117188 43.035156 -229.640625 41.609375 -233.671875 C 40.191406 -237.703125 37.523438 -240.425781 33.609375 -241.84375 C 29.691406 -243.269531 23.46875 -244.21875 14.9375 -244.6875 L 14.9375 -251.796875 C 24.894531 -251.085938 40.070312 -250.734375 60.46875 -250.734375 C 79.425781 -250.734375 94.476562 -251.085938 105.625 -251.796875 Z M 105.625 -244.6875 "/></g></g></g><g fill="#1c2120" fill-opacity="1"><g transform="translate(186.457056, 668.048964)"><g><path d="M 28.605469 -30.902344 L 28.605469 -5.296875 L 7.546875 -30.902344 L 4.238281 -30.902344 L 4.238281 0 L 5.296875 0 L 5.296875 -27.722656 L 28.164062 0 L 29.664062 0 L 29.664062 -30.902344 Z M 28.605469 -30.902344 "/></g></g></g><g fill="#1c2120" fill-opacity="1"><g transform="translate(220.309453, 668.048964)"><g><path d="M 8.167969 -0.882812 L 8.167969 -15.230469 L 22.027344 -15.230469 L 22.027344 -16.113281 L 8.167969 -16.113281 L 8.167969 -30.019531 L 25.558594 -30.019531 L 25.558594 -30.902344 L 4.238281 -30.902344 L 4.238281 0 L 26 0 L 26 -0.882812 Z M 8.167969 -0.882812 "/></g></g></g><g fill="#1c2120" fill-opacity="1"><g transform="translate(248.071053, 668.048964)"><g><path d="M 27.589844 -13.066406 L 27.589844 -4.679688 C 26.398438 -2.03125 23.265625 -0.441406 19.070312 -0.441406 C 11.300781 -0.441406 6.3125 -6.355469 6.3125 -15.316406 C 6.3125 -24.5 11.433594 -30.285156 19.820312 -30.285156 C 24.148438 -30.285156 27.457031 -28.738281 28.648438 -26.089844 C 28.515625 -26.132812 28.429688 -26.132812 28.296875 -26.132812 C 26.882812 -26.132812 25.867188 -25.164062 25.867188 -23.792969 C 25.867188 -22.425781 26.882812 -21.453125 28.296875 -21.453125 C 29.578125 -21.453125 30.546875 -22.425781 30.546875 -23.792969 C 30.546875 -28.121094 25.472656 -31.34375 18.851562 -31.34375 C 9.226562 -31.34375 2.207031 -24.5 2.207031 -15.449219 C 2.207031 -6.402344 9.316406 0.441406 18.628906 0.441406 C 22.957031 0.441406 26.664062 -0.972656 28.472656 -3.132812 L 30.988281 0 L 31.429688 0 L 31.429688 -13.066406 Z M 27.589844 -13.066406 "/></g></g></g><g fill="#1c2120" fill-opacity="1"><g transform="translate(282.938576, 668.048964)"><g><path d="M 4.238281 0 L 8.167969 0 L 8.167969 -30.902344 L 4.238281 -30.902344 Z M 4.238281 0 "/></g></g></g><g fill="#1c2120" fill-opacity="1"><g transform="translate(295.296677, 668.048964)"><g><path d="M 28.605469 -30.902344 L 28.605469 -5.296875 L 7.546875 -30.902344 L 4.238281 -30.902344 L 4.238281 0 L 5.296875 0 L 5.296875 -27.722656 L 28.164062 0 L 29.664062 0 L 29.664062 -30.902344 Z M 28.605469 -30.902344 "/></g></g></g><g fill="#1c2120" fill-opacity="1"><g transform="translate(329.149075, 668.048964)"><g><path d="M 26 0 L 30.105469 0 L 16.597656 -30.902344 L 14.875 -30.902344 L 1.324219 0 L 2.558594 0 L 6.578125 -9.136719 L 22.027344 -9.136719 Z M 6.929688 -10.019531 L 14.304688 -26.839844 L 21.632812 -10.019531 Z M 6.929688 -10.019531 "/></g></g></g><g fill="#1c2120" fill-opacity="1"><g transform="translate(360.573979, 668.048964)"><g/></g></g><g fill="#1c2120" fill-opacity="1"><g transform="translate(372.446596, 668.048964)"><g><path d="M 4.238281 0 L 8.167969 0 L 8.167969 -30.902344 L 4.238281 -30.902344 Z M 4.238281 0 "/></g></g></g><g fill="#1c2120" fill-opacity="1"><g transform="translate(384.804697, 668.048964)"><g><path d="M 28.605469 -30.902344 L 28.605469 -5.296875 L 7.546875 -30.902344 L 4.238281 -30.902344 L 4.238281 0 L 5.296875 0 L 5.296875 -27.722656 L 28.164062 0 L 29.664062 0 L 29.664062 -30.902344 Z M 28.605469 -30.902344 "/></g></g></g><g fill="#1c2120" fill-opacity="1"><g transform="translate(418.657095, 668.048964)"><g><path d="M 14.921875 -17.128906 C 10.550781 -18.851562 6.136719 -20.660156 6.136719 -24.457031 C 6.136719 -27.8125 9.578125 -30.371094 14.171875 -30.371094 C 17.703125 -30.371094 20.570312 -28.957031 21.761719 -26.882812 L 21.585938 -26.882812 C 20.261719 -26.882812 19.292969 -25.957031 19.292969 -24.675781 C 19.292969 -23.398438 20.261719 -22.515625 21.585938 -22.515625 C 22.777344 -22.515625 23.707031 -23.398438 23.707031 -24.675781 C 23.707031 -28.472656 19.378906 -31.34375 13.773438 -31.34375 C 7.636719 -31.34375 3.089844 -27.898438 3.089844 -23 C 3.089844 -17.65625 8.476562 -15.496094 12.933594 -13.683594 C 17.65625 -11.832031 21.761719 -10.109375 21.761719 -6.402344 C 21.761719 -2.957031 18.1875 -0.53125 13.15625 -0.53125 C 9.050781 -0.53125 5.652344 -2.117188 4.371094 -4.503906 L 4.679688 -4.503906 C 5.871094 -4.503906 6.796875 -5.429688 6.796875 -6.710938 C 6.796875 -7.988281 5.871094 -8.875 4.679688 -8.875 C 3.355469 -8.875 2.382812 -7.988281 2.382812 -6.710938 C 2.382812 -2.648438 7.371094 0.441406 13.683594 0.441406 C 20.21875 0.441406 24.898438 -2.871094 24.898438 -8.035156 C 24.898438 -13.289062 20.042969 -15.1875 14.921875 -17.128906 Z M 14.921875 -17.128906 "/></g></g></g><g fill="#1c2120" fill-opacity="1"><g transform="translate(445.624257, 668.048964)"><g><path d="M 4.238281 0 L 8.167969 0 L 8.167969 -30.902344 L 4.238281 -30.902344 Z M 4.238281 0 "/></g></g></g><g fill="#1c2120" fill-opacity="1"><g transform="translate(457.982358, 668.048964)"><g><path d="M 27.589844 -13.066406 L 27.589844 -4.679688 C 26.398438 -2.03125 23.265625 -0.441406 19.070312 -0.441406 C 11.300781 -0.441406 6.3125 -6.355469 6.3125 -15.316406 C 6.3125 -24.5 11.433594 -30.285156 19.820312 -30.285156 C 24.148438 -30.285156 27.457031 -28.738281 28.648438 -26.089844 C 28.515625 -26.132812 28.429688 -26.132812 28.296875 -26.132812 C 26.882812 -26.132812 25.867188 -25.164062 25.867188 -23.792969 C 25.867188 -22.425781 26.882812 -21.453125 28.296875 -21.453125 C 29.578125 -21.453125 30.546875 -22.425781 30.546875 -23.792969 C 30.546875 -28.121094 25.472656 -31.34375 18.851562 -31.34375 C 9.226562 -31.34375 2.207031 -24.5 2.207031 -15.449219 C 2.207031 -6.402344 9.316406 0.441406 18.628906 0.441406 C 22.957031 0.441406 26.664062 -0.972656 28.472656 -3.132812 L 30.988281 0 L 31.429688 0 L 31.429688 -13.066406 Z M 27.589844 -13.066406 "/></g></g></g><g fill="#1c2120" fill-opacity="1"><g transform="translate(492.849881, 668.048964)"><g><path d="M 26.398438 -30.902344 L 26.398438 -16.113281 L 8.167969 -16.113281 L 8.167969 -30.902344 L 4.238281 -30.902344 L 4.238281 0 L 8.167969 0 L 8.167969 -15.230469 L 26.398438 -15.230469 L 26.398438 0 L 30.328125 0 L 30.328125 -30.902344 Z M 26.398438 -30.902344 "/></g></g></g><g fill="#1c2120" fill-opacity="1"><g transform="translate(527.40845, 668.048964)"><g><path d="M 25.957031 -30.902344 L 1.191406 -30.902344 L 1.191406 -30.019531 L 11.652344 -30.019531 L 11.652344 0 L 15.582031 0 L 15.582031 -30.019531 L 25.957031 -30.019531 Z M 25.957031 -30.902344 "/></g></g></g><g fill="#1c2120" fill-opacity="1"><g transform="translate(554.552145, 668.048964)"><g><path d="M 14.921875 -17.128906 C 10.550781 -18.851562 6.136719 -20.660156 6.136719 -24.457031 C 6.136719 -27.8125 9.578125 -30.371094 14.171875 -30.371094 C 17.703125 -30.371094 20.570312 -28.957031 21.761719 -26.882812 L 21.585938 -26.882812 C 20.261719 -26.882812 19.292969 -25.957031 19.292969 -24.675781 C 19.292969 -23.398438 20.261719 -22.515625 21.585938 -22.515625 C 22.777344 -22.515625 23.707031 -23.398438 23.707031 -24.675781 C 23.707031 -28.472656 19.378906 -31.34375 13.773438 -31.34375 C 7.636719 -31.34375 3.089844 -27.898438 3.089844 -23 C 3.089844 -17.65625 8.476562 -15.496094 12.933594 -13.683594 C 17.65625 -11.832031 21.761719 -10.109375 21.761719 -6.402344 C 21.761719 -2.957031 18.1875 -0.53125 13.15625 -0.53125 C 9.050781 -0.53125 5.652344 -2.117188 4.371094 -4.503906 L 4.679688 -4.503906 C 5.871094 -4.503906 6.796875 -5.429688 6.796875 -6.710938 C 6.796875 -7.988281 5.871094 -8.875 4.679688 -8.875 C 3.355469 -8.875 2.382812 -7.988281 2.382812 -6.710938 C 2.382812 -2.648438 7.371094 0.441406 13.683594 0.441406 C 20.21875 0.441406 24.898438 -2.871094 24.898438 -8.035156 C 24.898438 -13.289062 20.042969 -15.1875 14.921875 -17.128906 Z M 14.921875 -17.128906 "/></g></g></g><g fill="#1c2120" fill-opacity="1"><g transform="translate(307.11874, 704.145658)"><g><path d="M 0.996094 0 L 7.707031 0 C 10.625 0 14.269531 -0.273438 14.269531 -4.316406 C 14.269531 -7.085938 12.671875 -8.304688 10.949219 -8.804688 C 12.472656 -9.328125 13.71875 -10.378906 13.71875 -12.523438 C 13.71875 -16.339844 10.578125 -16.464844 7.210938 -16.464844 L 0.996094 -16.464844 L 0.996094 -16.039062 C 2.019531 -16.039062 2.246094 -15.539062 2.246094 -14.042969 L 2.246094 -2.417969 C 2.246094 -0.921875 2.019531 -0.425781 0.996094 -0.425781 Z M 3.992188 -9.230469 L 3.992188 -15.539062 L 7.234375 -15.539062 C 10.527344 -15.539062 11.972656 -15.066406 11.972656 -12.398438 C 11.972656 -9.753906 9.953125 -9.230469 7.035156 -9.230469 Z M 3.992188 -0.921875 L 3.992188 -8.332031 L 7.582031 -8.332031 C 10.527344 -8.332031 12.523438 -7.234375 12.523438 -4.566406 C 12.523438 -1.921875 11.101562 -0.921875 7.78125 -0.921875 Z M 3.992188 -0.921875 "/></g></g></g><g fill="#1c2120" fill-opacity="1"><g transform="translate(322.379598, 704.145658)"><g><path d="M 0.996094 0 L 5.238281 0 L 5.238281 -0.425781 C 4.214844 -0.425781 3.992188 -0.921875 3.992188 -2.417969 L 3.992188 -4.488281 C 3.992188 -7.90625 5.636719 -11.796875 8.480469 -11.796875 C 10.253906 -11.796875 10.601562 -10.476562 9.480469 -7.734375 L 11.226562 -7.234375 C 12.570312 -10.949219 11.5 -12.722656 8.957031 -12.722656 C 6.085938 -12.722656 4.640625 -10.476562 4.140625 -8.707031 L 3.992188 -8.707031 L 3.992188 -11.027344 C 3.992188 -12.296875 3.46875 -12.449219 2.542969 -12.472656 L 0.996094 -12.472656 L 0.996094 -12.046875 C 2.019531 -12.046875 2.246094 -11.550781 2.246094 -10.050781 L 2.246094 -2.417969 C 2.246094 -0.921875 2.019531 -0.425781 0.996094 -0.425781 Z M 0.996094 0 "/></g></g></g><g fill="#1c2120" fill-opacity="1"><g transform="translate(334.922434, 704.145658)"><g><path d="M 4.539062 0.25 C 6.808594 0.25 8.855469 -0.773438 9.851562 -2.519531 L 10.003906 -2.519531 L 10.003906 -1.273438 C 10.078125 -0.425781 10.652344 0 11.425781 0 C 12 0 12.621094 -0.25 12.996094 -0.796875 L 12.996094 -1.296875 C 11.972656 -0.796875 11.75 -1.121094 11.75 -2.621094 L 11.75 -6.585938 C 11.75 -10.75 10.625 -12.722656 6.984375 -12.722656 C 3.066406 -12.722656 1.171875 -10.253906 1.921875 -7.507812 L 3.59375 -8.082031 C 2.84375 -10.078125 4.367188 -11.796875 6.761719 -11.796875 C 9.253906 -11.796875 9.828125 -10.402344 9.953125 -7.90625 C 6.285156 -7.308594 0.996094 -6.4375 0.996094 -2.84375 C 0.996094 -0.722656 2.46875 0.25 4.539062 0.25 Z M 5.039062 -0.671875 C 3.390625 -0.671875 2.742188 -1.523438 2.742188 -2.917969 C 2.742188 -5.386719 6.386719 -6.535156 10.003906 -7.007812 L 10.003906 -5.363281 C 10.003906 -2.417969 7.332031 -0.671875 5.039062 -0.671875 Z M 5.039062 -0.671875 "/></g></g></g><g fill="#1c2120" fill-opacity="1"><g transform="translate(348.412824, 704.145658)"><g><path d="M 0.996094 0 L 5.238281 0 L 5.238281 -0.425781 C 4.214844 -0.425781 3.992188 -0.921875 3.992188 -2.417969 L 3.992188 -4.488281 C 3.992188 -7.90625 4.839844 -11.796875 8.53125 -11.796875 C 10.601562 -11.796875 11.199219 -10.277344 11.199219 -8.058594 L 11.199219 -2.417969 C 11.199219 -0.921875 11 -0.425781 9.953125 -0.425781 L 9.953125 0 L 14.195312 0 L 14.195312 -0.425781 C 13.171875 -0.425781 12.945312 -0.921875 12.945312 -2.417969 L 12.945312 -7.582031 C 12.945312 -10.824219 11.75 -12.722656 8.929688 -12.722656 C 6.113281 -12.722656 4.738281 -11.027344 4.140625 -8.878906 L 3.992188 -8.878906 L 3.992188 -11.027344 C 3.992188 -12.296875 3.46875 -12.449219 2.542969 -12.472656 L 0.996094 -12.472656 L 0.996094 -12.046875 C 2.019531 -12.046875 2.246094 -11.550781 2.246094 -10.050781 L 2.246094 -2.417969 C 2.246094 -0.921875 2.019531 -0.425781 0.996094 -0.425781 Z M 0.996094 0 "/></g></g></g><g fill="#1c2120" fill-opacity="1"><g transform="translate(363.598871, 704.145658)"><g><path d="M 6.660156 0.25 C 8.753906 0.25 10.578125 -0.847656 11.523438 -2.71875 L 11.675781 -2.71875 L 11.675781 -1.246094 C 11.675781 -0.175781 12.199219 -0.0234375 13.121094 0 L 14.667969 0 L 14.667969 -0.425781 C 13.644531 -0.425781 13.421875 -0.921875 13.421875 -2.417969 L 13.421875 -16.386719 C 13.421875 -17.761719 12.921875 -17.933594 12 -17.960938 L 10.425781 -17.960938 L 10.425781 -17.535156 C 11.472656 -17.535156 11.675781 -17.039062 11.675781 -15.539062 L 11.675781 -9.753906 L 11.523438 -9.753906 C 10.578125 -11.625 8.753906 -12.722656 6.660156 -12.722656 C 3.46875 -12.722656 0.996094 -10.378906 0.996094 -6.234375 C 0.996094 -2.09375 3.46875 0.25 6.660156 0.25 Z M 7.035156 -0.671875 C 4.339844 -0.671875 2.792969 -2.820312 2.792969 -6.234375 C 2.792969 -9.652344 4.339844 -11.796875 7.035156 -11.796875 C 10.078125 -11.796875 11.523438 -9.453125 11.523438 -6.234375 C 11.523438 -3.019531 10.078125 -0.671875 7.035156 -0.671875 Z M 7.035156 -0.671875 "/></g></g></g><g fill="#1c2120" fill-opacity="1"><g transform="translate(379.009331, 704.145658)"><g/></g></g><g fill="#1c2120" fill-opacity="1"><g transform="translate(384.769565, 704.145658)"><g><path d="M 8.707031 0.25 C 13.59375 0.25 16.414062 -3.367188 16.414062 -8.230469 C 16.414062 -13.097656 13.59375 -16.714844 8.707031 -16.714844 C 3.792969 -16.714844 0.996094 -13.097656 0.996094 -8.230469 C 0.996094 -3.367188 3.792969 0.25 8.707031 0.25 Z M 9.378906 -0.699219 C 5.511719 -0.398438 3.117188 -3.367188 2.769531 -7.757812 C 2.417969 -12.171875 4.289062 -15.441406 8.03125 -15.765625 C 11.898438 -16.0625 14.269531 -13.097656 14.640625 -8.707031 C 15.015625 -4.289062 13.097656 -1.023438 9.378906 -0.699219 Z M 9.378906 -0.699219 "/></g></g></g><g fill="#1c2120" fill-opacity="1"><g transform="translate(402.174908, 704.145658)"><g><path d="M 1.621094 0 L 5.863281 0 L 5.863281 -0.425781 C 4.8125 -0.425781 4.613281 -0.921875 4.613281 -2.417969 L 4.613281 -11.550781 L 7.558594 -11.550781 C 8.480469 -11.550781 8.480469 -11.847656 8.480469 -12.472656 L 4.613281 -12.472656 C 4.613281 -15.140625 4.640625 -17.285156 6.734375 -17.285156 C 7.882812 -17.285156 8.457031 -16.140625 7.132812 -14.84375 L 8.878906 -14.34375 C 9.976562 -16.3125 9.128906 -18.210938 6.585938 -18.210938 C 4.390625 -18.210938 2.867188 -16.835938 2.867188 -13.570312 L 2.867188 -12.472656 L 0.996094 -12.472656 L 0.996094 -11.550781 L 2.867188 -11.550781 L 2.867188 -2.417969 C 2.867188 -0.921875 2.644531 -0.425781 1.621094 -0.425781 Z M 1.621094 0 "/></g></g></g><g fill="#1c2120" fill-opacity="1"><g transform="translate(411.800221, 704.145658)"><g><path d="M 1.621094 0 L 5.863281 0 L 5.863281 -0.425781 C 4.8125 -0.425781 4.613281 -0.921875 4.613281 -2.417969 L 4.613281 -11.550781 L 7.558594 -11.550781 C 8.480469 -11.550781 8.480469 -11.847656 8.480469 -12.472656 L 4.613281 -12.472656 C 4.613281 -15.140625 4.640625 -17.285156 6.734375 -17.285156 C 7.882812 -17.285156 8.457031 -16.140625 7.132812 -14.84375 L 8.878906 -14.34375 C 9.976562 -16.3125 9.128906 -18.210938 6.585938 -18.210938 C 4.390625 -18.210938 2.867188 -16.835938 2.867188 -13.570312 L 2.867188 -12.472656 L 0.996094 -12.472656 L 0.996094 -11.550781 L 2.867188 -11.550781 L 2.867188 -2.417969 C 2.867188 -0.921875 2.644531 -0.425781 1.621094 -0.425781 Z M 1.621094 0 "/></g></g></g><g fill="#1c2120" fill-opacity="1"><g transform="translate(421.425533, 704.145658)"><g><path d="M 7.085938 0.25 C 10.527344 0.25 12.945312 -1.894531 12.722656 -5.488281 L 10.976562 -4.988281 C 11.324219 -2.195312 9.15625 -0.671875 7.085938 -0.671875 C 4.164062 -0.671875 2.742188 -3.019531 2.742188 -6.234375 C 2.742188 -9.453125 4.164062 -11.796875 7.132812 -11.796875 C 9.15625 -11.796875 10.824219 -10.253906 10.726562 -7.734375 L 12.472656 -7.234375 C 12.472656 -10.578125 10.527344 -12.722656 7.160156 -12.722656 C 2.867188 -12.722656 0.996094 -9.605469 0.996094 -6.234375 C 0.996094 -2.867188 2.867188 0.25 7.085938 0.25 Z M 7.085938 0.25 "/></g></g></g><g fill="#1c2120" fill-opacity="1"><g transform="translate(435.14036, 704.145658)"><g><path d="M 2.867188 -14.792969 C 3.492188 -14.792969 3.941406 -15.191406 3.941406 -15.765625 C 3.941406 -16.289062 3.492188 -16.714844 2.867188 -16.714844 C 2.21875 -16.714844 1.769531 -16.289062 1.769531 -15.765625 C 1.769531 -15.191406 2.21875 -14.792969 2.867188 -14.792969 Z M 0.996094 0 L 5.238281 0 L 5.238281 -0.425781 C 4.214844 -0.425781 3.992188 -0.921875 3.992188 -2.417969 L 3.992188 -11.027344 C 3.992188 -12.296875 3.46875 -12.449219 2.542969 -12.472656 L 0.996094 -12.472656 L 0.996094 -12.046875 C 2.019531 -12.046875 2.246094 -11.550781 2.246094 -10.050781 L 2.246094 -2.417969 C 2.246094 -0.921875 2.019531 -0.425781 0.996094 -0.425781 Z M 0.996094 0 "/></g></g></g><g fill="#1c2120" fill-opacity="1"><g transform="translate(441.37436, 704.145658)"><g><path d="M 4.539062 0.25 C 6.808594 0.25 8.855469 -0.773438 9.851562 -2.519531 L 10.003906 -2.519531 L 10.003906 -1.273438 C 10.078125 -0.425781 10.652344 0 11.425781 0 C 12 0 12.621094 -0.25 12.996094 -0.796875 L 12.996094 -1.296875 C 11.972656 -0.796875 11.75 -1.121094 11.75 -2.621094 L 11.75 -6.585938 C 11.75 -10.75 10.625 -12.722656 6.984375 -12.722656 C 3.066406 -12.722656 1.171875 -10.253906 1.921875 -7.507812 L 3.59375 -8.082031 C 2.84375 -10.078125 4.367188 -11.796875 6.761719 -11.796875 C 9.253906 -11.796875 9.828125 -10.402344 9.953125 -7.90625 C 6.285156 -7.308594 0.996094 -6.4375 0.996094 -2.84375 C 0.996094 -0.722656 2.46875 0.25 4.539062 0.25 Z M 5.039062 -0.671875 C 3.390625 -0.671875 2.742188 -1.523438 2.742188 -2.917969 C 2.742188 -5.386719 6.386719 -6.535156 10.003906 -7.007812 L 10.003906 -5.363281 C 10.003906 -2.417969 7.332031 -0.671875 5.039062 -0.671875 Z M 5.039062 -0.671875 "/></g></g></g><g fill="#1c2120" fill-opacity="1"><g transform="translate(454.86475, 704.145658)"><g><path d="M 0.996094 0 L 5.238281 0 L 5.238281 -0.425781 C 4.214844 -0.425781 3.992188 -0.921875 3.992188 -2.417969 L 3.992188 -16.386719 C 3.992188 -17.761719 3.46875 -17.933594 2.542969 -17.960938 L 0.996094 -17.960938 L 0.996094 -17.535156 C 2.019531 -17.535156 2.246094 -17.039062 2.246094 -15.539062 L 2.246094 -2.417969 C 2.246094 -0.921875 2.019531 -0.425781 0.996094 -0.425781 Z M 0.996094 0 "/></g></g></g></svg>